{
  "accessors": [
    {
      "bufferView": 2,
      "componentType": 5126,
      "count": 32,
      "max": [
        1.2842532396316528,
        1.2842533588409424,
        3.65621018409729
      ],
      "min": [
        -1.2842532396316528,
        -1.2842533588409424,
        -0.0700993537902832
      ],
      "type": "VEC3"
    },
    {
      "bufferView": 2,
      "byteOffset": 384,
      "componentType": 5126,
      "count": 32,
      "max": [
        0.9940561056137085,
        0.9883056879043579,
        0.15248613059520721
      ],
      "min": [
        -0.9927871227264404,
        -0.9914751052856445,
        0.10886871814727783
      ],
      "type": "VEC3"
    },
    {
      "bufferView": 1,
      "componentType": 5126,
      "count": 32,
      "max": [
        0.9982364177703857,
        0.9954009056091309
      ],
      "min": [
        0.00025181472301483154,
        0.17847444117069244
      ],
      "type": "VEC2"
    },
    {
      "bufferView": 0,
      "componentType": 5125,
      "count": 48,
      "type": "SCALAR"
    },
    {
      "bufferView": 2,
      "byteOffset": 768,
      "componentType": 5126,
      "count": 32,
      "max": [
        1.2842532396316528,
        1.2842533588409424,
        1.8434114456176758
      ],
      "min": [
        -1.2842531204223633,
        -1.2842533588409424,
        -0.0350496768951416
      ],
      "type": "VEC3"
    },
    {
      "bufferView": 2,
      "byteOffset": 1152,
      "componentType": 5126,
      "count": 32,
      "max": [
        0.9772040843963623,
        0.9652494192123413,
        0.27480068802833557
      ],
      "min": [
        -0.9771125316619873,
        -0.9732728004455566,
        0.2123020738363266
      ],
      "type": "VEC3"
    },
    {
      "bufferView": 1,
      "byteOffset": 256,
      "componentType": 5126,
      "count": 32,
      "max": [
        0.9906165599822998,
        0.4551985263824463
      ],
      "min": [
        0.0069577693939208984,
        0.009208336472511292
      ],
      "type": "VEC2"
    },
    {
      "bufferView": 0,
      "byteOffset": 192,
      "componentType": 5125,
      "count": 48,
      "type": "SCALAR"
    }
  ],
  "asset": {
    "extras": {
      "author": "Killy (https://sketchfab.com/lanternlit)",
      "license": "CC-BY-4.0 (http://creativecommons.org/licenses/by/4.0/)",
      "source": "https://sketchfab.com/3d-models/grass-7ebe6950dd4446babb31e3905b3b30d2",
      "title": "Grass"
    },
    "generator": "Sketchfab-12.66.0",
    "version": "2.0"
  },
  "bufferViews": [
    {
      "buffer": 0,
      "byteLength": 384,
      "name": "floatBufferViews",
      "target": 34963
    },
    {
      "buffer": 0,
      "byteLength": 512,
      "byteOffset": 384,
      "byteStride": 8,
      "name": "floatBufferViews",
      "target": 34962
    },
    {
      "buffer": 0,
      "byteLength": 1536,
      "byteOffset": 896,
      "byteStride": 12,
      "name": "floatBufferViews",
      "target": 34962
    }
  ],
  "buffers": [
    {
      "byteLength": 2432,
      "uri": "scene.bin"
    }
  ],
  "images": [
    {
      "uri": "textures/m_grass_t_baseColor.png"
    },
    {
      "uri": "textures/m_grass_t_metallicRoughness.png"
    },
    {
      "uri": "textures/m_grass_s_baseColor.png"
    },
    {
      "uri": "textures/m_grass_s_metallicRoughness.png"
    }
  ],
  "materials": [
    {
      "alphaCutoff": 0.42124199697207376,
      "alphaMode": "MASK",
      "doubleSided": true,
      "name": "m_grass_t",
      "pbrMetallicRoughness": {
        "baseColorTexture": {
          "index": 0
        },
        "metallicFactor": 0.0,
        "metallicRoughnessTexture": {
          "index": 1
        }
      }
    },
    {
      "alphaMode": "MASK",
      "doubleSided": true,
      "name": "m_grass_s",
      "pbrMetallicRoughness": {
        "baseColorTexture": {
          "index": 2
        },
        "metallicFactor": 0.0,
        "metallicRoughnessTexture": {
          "index": 3
        }
      }
    }
  ],
  "meshes": [
    {
      "name": "grass_tall_m_grass_t_0",
      "primitives": [
        {
          "attributes": {
            "NORMAL": 1,
            "POSITION": 0,
            "TEXCOORD_0": 2
          },
          "indices": 3,
          "material": 0,
          "mode": 4
        }
      ]
    },
    {
      "name": "grass_short_m_grass_s_0",
      "primitives": [
        {
          "attributes": {
            "NORMAL": 5,
            "POSITION": 4,
            "TEXCOORD_0": 6
          },
          "indices": 7,
          "material": 1,
          "mode": 4
        }
      ]
    }
  ],
  "nodes": [
    {
      "children": [
        1
      ],
      "matrix": [
        1.0,
        0.0,
        0.0,
        0.0,
        0.0,
        2.220446049250313e-16,
        -1.0,
        0.0,
        0.0,
        1.0,
        2.220446049250313e-16,
        0.0,
        0.0,
        0.0,
        0.0,
        1.0
      ],
      "name": "Sketchfab_model"
    },
    {
      "children": [
        2
      ],
      "matrix": [
        1.0,
        0.0,
        0.0,
        0.0,
        0.0,
        0.0,
        1.0,
        0.0,
        0.0,
        -1.0,
        0.0,
        0.0,
        0.0,
        0.0,
        0.0,
        1.0
      ],
      "name": "96c8bc5fbebc43eea77d6c163e32efe0.fbx"
    },
    {
      "children": [
        3,
        5
      ],
      "name": "RootNode"
    },
    {
      "children": [
        4
      ],
      "matrix": [
        -99.99999999999241,
        1.2246465878873718e-14,
        3.8941437775530106e-05,
        0.0,
        3.894143777553e-05,
        7.549789982075339e-06,
        99.99999999999213,
        0.0,
        -2.9277502948264183e-12,
        99.9999999999997,
        -7.549789970973109e-06,
        0.0,
        -147.31576538085938,
        0.0,
        0.0,
        1.0
      ],
      "name": "grass_tall"
    },
    {
      "mesh": 0,
      "name": "grass_tall_m_grass_t_0"
    },
    {
      "children": [
        6
      ],
      "matrix": [
        -99.99999999999241,
        1.2246465878873718e-14,
        3.8941437775530106e-05,
        0.0,
        3.894143777553e-05,
        7.549789982075339e-06,
        99.99999999999213,
        0.0,
        -2.9277502948264183e-12,
        99.9999999999997,
        -7.549789970973109e-06,
        0.0,
        152.68423461914063,
        0.0,
        0.0,
        1.0
      ],
      "name": "grass_short"
    },
    {
      "mesh": 1,
      "name": "grass_short_m_grass_s_0"
    }
  ],
  "samplers": [
    {
      "magFilter": 9729,
      "minFilter": 9987,
      "wrapS": 10497,
      "wrapT": 10497
    }
  ],
  "scene": 0,
  "scenes": [
    {
      "name": "Sketchfab_Scene",
      "nodes": [
        0
      ]
    }
  ],
  "textures": [
    {
      "sampler": 0,
      "source": 0
    },
    {
      "sampler": 0,
      "source": 1
    },
    {
      "sampler": 0,
      "source": 2
    },
    {
      "sampler": 0,
      "source": 3
    }
  ]
}
