{
  "accessors": [
    {
      "bufferView": 2,
      "componentType": 5126,
      "count": 4382,
      "max": [
        33.97361755371094,
        34.15224075317383,
        99.60113525390625
      ],
      "min": [
        -33.97361755371094,
        -34.69287109375,
        74.41517639160156
      ],
      "type": "VEC3"
    },
    {
      "bufferView": 2,
      "byteOffset": 52584,
      "componentType": 5126,
      "count": 4382,
      "max": [
        0.9989954829216003,
        1.0,
        1.0
      ],
      "min": [
        -0.9989954829216003,
        -1.0,
        -1.0
      ],
      "type": "VEC3"
    },
    {
      "bufferView": 1,
      "componentType": 5126,
      "count": 4382,
      "max": [
        0.643611490726471,
        0.8897018432617188
      ],
      "min": [
        0.10985630005598068,
        0.11029819399118423
      ],
      "type": "VEC2"
    },
    {
      "bufferView": 0,
      "componentType": 5125,
      "count": 12816,
      "type": "SCALAR"
    },
    {
      "bufferView": 2,
      "byteOffset": 105168,
      "componentType": 5126,
      "count": 2628,
      "max": [
        25.902774810791016,
        25.873435974121094,
        96.83775329589844
      ],
      "min": [
        -25.902774810791016,
        -25.873437881469727,
        76.82728576660156
      ],
      "type": "VEC3"
    },
    {
      "bufferView": 2,
      "byteOffset": 136704,
      "componentType": 5126,
      "count": 2628,
      "max": [
        0.998867392539978,
        1.0,
        1.0
      ],
      "min": [
        -0.9988674521446228,
        -1.0,
        -1.0
      ],
      "type": "VEC3"
    },
    {
      "bufferView": 1,
      "byteOffset": 35056,
      "componentType": 5126,
      "count": 2628,
      "max": [
        0.8985042572021484,
        0.8980528712272644
      ],
      "min": [
        0.10149577260017395,
        0.10194713622331619
      ],
      "type": "VEC2"
    },
    {
      "bufferView": 0,
      "byteOffset": 51264,
      "componentType": 5125,
      "count": 11088,
      "type": "SCALAR"
    },
    {
      "bufferView": 2,
      "byteOffset": 168240,
      "componentType": 5126,
      "count": 68,
      "max": [
        22.809791564941406,
        22.89733123779297,
        84.05238342285156
      ],
      "min": [
        -23.033771514892578,
        -22.946231842041016,
        84.05238342285156
      ],
      "type": "VEC3"
    },
    {
      "bufferView": 2,
      "byteOffset": 169056,
      "componentType": 5126,
      "count": 68,
      "max": [
        0.0,
        0.0,
        1.0
      ],
      "min": [
        0.0,
        0.0,
        1.0
      ],
      "type": "VEC3"
    },
    {
      "bufferView": 1,
      "byteOffset": 56080,
      "componentType": 5126,
      "count": 68,
      "max": [
        1.0,
        1.0
      ],
      "min": [
        2.9802322387695313e-08,
        2.9802322387695313e-08
      ],
      "type": "VEC2"
    },
    {
      "bufferView": 0,
      "byteOffset": 95616,
      "componentType": 5125,
      "count": 198,
      "type": "SCALAR"
    }
  ],
  "asset": {
    "extras": {
      "author": "step-light (https://sketchfab.com/step-light)",
      "license": "CC-BY-4.0 (http://creativecommons.org/licenses/by/4.0/)",
      "source": "https://sketchfab.com/3d-models/it-707-integrator-step-light-led-surface-mount-c09794ca3b1f4836b010c451f607e3cc",
      "title": "IT-707 Integrator Step Light LED Surface Mount"
    },
    "generator": "Sketchfab-15.1.0",
    "version": "2.0"
  },
  "bufferViews": [
    {
      "buffer": 0,
      "byteLength": 96408,
      "name": "floatBufferViews",
      "target": 34963
    },
    {
      "buffer": 0,
      "byteLength": 56624,
      "byteOffset": 96408,
      "byteStride": 8,
      "name": "floatBufferViews",
      "target": 34962
    },
    {
      "buffer": 0,
      "byteLength": 169872,
      "byteOffset": 153032,
      "byteStride": 12,
      "name": "floatBufferViews",
      "target": 34962
    }
  ],
  "buffers": [
    {
      "byteLength": 322904,
      "uri": "scene.bin"
    }
  ],
  "materials": [
    {
      "doubleSided": true,
      "name": "Material_48",
      "pbrMetallicRoughness": {
        "metallicFactor": 0.0,
        "roughnessFactor": 0.6
      }
    },
    {
      "doubleSided": true,
      "name": "Material_40",
      "pbrMetallicRoughness": {
        "metallicFactor": 0.0,
        "roughnessFactor": 0.6
      }
    },
    {
      "doubleSided": true,
      "name": "Material_40_0",
      "pbrMetallicRoughness": {
        "metallicFactor": 0.0,
        "roughnessFactor": 0.6
      }
    }
  ],
  "meshes": [
    {
      "name": "IT-707-alum_Material #48_0",
      "primitives": [
        {
          "attributes": {
            "NORMAL": 1,
            "POSITION": 0,
            "TEXCOORD_0": 2
          },
          "indices": 3,
          "material": 0,
          "mode": 4
        }
      ]
    },
    {
      "name": "IT-707-alum_Material #40_0",
      "primitives": [
        {
          "attributes": {
            "NORMAL": 5,
            "POSITION": 4,
            "TEXCOORD_0": 6
          },
          "indices": 7,
          "material": 1,
          "mode": 4
        }
      ]
    },
    {
      "name": "IT-707-alum_Material #40_0",
      "primitives": [
        {
          "attributes": {
            "NORMAL": 9,
            "POSITION": 8,
            "TEXCOORD_0": 10
          },
          "indices": 11,
          "material": 2,
          "mode": 4
        }
      ]
    }
  ],
  "nodes": [
    {
      "children": [
        1
      ],
      "matrix": [
        1.0,
        0.0,
        0.0,
        0.0,
        0.0,
        2.220446049250313e-16,
        -1.0,
        0.0,
        0.0,
        1.0,
        2.220446049250313e-16,
        0.0,
        0.0,
        0.0,
        0.0,
        1.0
      ],
      "name": "Sketchfab_model"
    },
    {
      "children": [
        2
      ],
      "matrix": [
        0.0010000000474974513,
        0.0,
        0.0,
        0.0,
        0.0,
        0.0,
        0.0010000000474974513,
        0.0,
        0.0,
        -0.0010000000474974513,
        0.0,
        0.0,
        0.0,
        0.0,
        0.0,
        1.0
      ],
      "name": "IT-707.FBX"
    },
    {
      "children": [
        3
      ],
      "name": "RootNode"
    },
    {
      "children": [
        4
      ],
      "matrix": [
        1.0,
        0.0,
        0.0,
        0.0,
        0.0,
        0.9999999999999867,
        1.6292068494294582e-07,
        0.0,
        0.0,
        -1.6292068494294582e-07,
        0.9999999999999867,
        0.0,
        0.0,
        0.0,
        -0.00037384033203125,
        1.0
      ],
      "name": "IT-707-alum"
    },
    {
      "children": [
        5,
        6,
        7
      ],
      "matrix": [
        1.0,
        0.0,
        -0.0,
        0.0,
        0.0,
        1.0,
        0.0,
        0.0,
        0.0,
        0.0,
        1.0,
        0.0,
        0.0,
        -1.36938097057282e-05,
        -84.052001953125,
        1.0
      ],
      "name": "Object_4"
    },
    {
      "mesh": 0,
      "name": "IT-707-alum_Material #48_0"
    },
    {
      "mesh": 1,
      "name": "IT-707-alum_Material #40_0"
    },
    {
      "mesh": 2,
      "name": "IT-707-alum_Material #40_0"
    }
  ],
  "scene": 0,
  "scenes": [
    {
      "name": "Sketchfab_Scene",
      "nodes": [
        0
      ]
    }
  ]
}
